<svg xmlns="http://www.w3.org/2000/svg" xmlns:xlink="http://www.w3.org/1999/xlink" width="2000" zoomAndPan="magnify" viewBox="0 0 1500 1499.999933" height="2000" preserveAspectRatio="xMidYMid meet" version="1.0"><defs><g/><clipPath id="d4a032b223"><path d="M 150 298.5 L 1350 298.5 L 1350 1201.5 L 150 1201.5 Z M 150 298.5 " clip-rule="nonzero"/></clipPath><clipPath id="4e451058af"><rect x="0" width="464" y="0" height="910"/></clipPath></defs><g clip-path="url(#d4a032b223)"><path fill="#b30505" d="M 750.125 298.574219 C 565.78125 298.574219 425.996094 356.75 329.226562 427.675781 C 232.457031 498.601562 178.527344 578.71875 155.007812 634.121094 C 153.328125 638.082031 152.066406 642.167969 151.230469 646.390625 C 150.390625 650.609375 149.992188 654.871094 150.035156 659.171875 C 150.078125 663.472656 150.558594 667.726562 151.476562 671.929688 C 152.398438 676.128906 153.738281 680.195312 155.496094 684.121094 C 172.230469 721.34375 210.605469 768.863281 260.574219 816.738281 L 176.785156 918.691406 C 176.097656 919.476562 175.429688 920.277344 174.78125 921.09375 C 174.132812 921.914062 173.507812 922.746094 172.902344 923.59375 C 172.296875 924.445312 171.710938 925.308594 171.148438 926.1875 C 170.585938 927.066406 170.042969 927.957031 169.527344 928.863281 C 169.007812 929.769531 168.511719 930.6875 168.042969 931.617188 C 167.570312 932.546875 167.121094 933.492188 166.695312 934.441406 C 166.269531 935.394531 165.871094 936.359375 165.492188 937.332031 C 165.117188 938.304688 164.765625 939.289062 164.4375 940.277344 C 164.109375 941.269531 163.804688 942.265625 163.527344 943.273438 C 163.25 944.277344 163 945.289062 162.769531 946.308594 C 162.542969 947.328125 162.34375 948.351562 162.167969 949.378906 C 161.992188 950.40625 161.84375 951.441406 161.71875 952.476562 C 161.59375 953.511719 161.496094 954.550781 161.425781 955.589844 C 161.351562 956.632812 161.304688 957.675781 161.285156 958.71875 C 161.265625 959.761719 161.273438 960.804688 161.304688 961.847656 C 161.335938 962.890625 161.394531 963.929688 161.480469 964.972656 C 161.566406 966.011719 161.675781 967.046875 161.8125 968.082031 C 161.949219 969.117188 162.113281 970.148438 162.300781 971.175781 C 162.488281 972.199219 162.703125 973.222656 162.941406 974.238281 C 163.179688 975.253906 163.445312 976.261719 163.734375 977.265625 C 164.023438 978.265625 164.339844 979.261719 164.679688 980.246094 C 165.019531 981.234375 165.382812 982.210938 165.769531 983.179688 C 166.160156 984.148438 166.570312 985.105469 167.007812 986.054688 C 167.445312 987 167.90625 987.9375 168.386719 988.863281 C 168.871094 989.789062 169.378906 990.699219 169.90625 991.597656 C 170.4375 992.496094 170.988281 993.382812 171.5625 994.253906 C 172.132812 995.125 172.730469 995.984375 173.34375 996.824219 C 173.960938 997.667969 174.597656 998.492188 175.257812 999.304688 C 175.914062 1000.113281 176.589844 1000.90625 177.289062 1001.683594 C 177.988281 1002.457031 178.703125 1003.214844 179.4375 1003.957031 C 180.171875 1004.699219 180.925781 1005.417969 181.699219 1006.121094 C 182.46875 1006.824219 183.257812 1007.507812 184.066406 1008.167969 C 184.871094 1008.832031 185.691406 1009.476562 186.53125 1010.097656 C 187.367188 1010.71875 188.222656 1011.320312 189.089844 1011.898438 C 189.957031 1012.476562 190.839844 1013.035156 191.734375 1013.570312 C 192.628906 1014.105469 193.539062 1014.617188 194.460938 1015.105469 C 195.382812 1015.59375 196.316406 1016.0625 197.261719 1016.503906 C 198.203125 1016.945312 199.160156 1017.367188 200.125 1017.761719 C 201.089844 1018.15625 202.066406 1018.527344 203.050781 1018.871094 C 204.035156 1019.21875 205.027344 1019.539062 206.027344 1019.835938 C 207.027344 1020.132812 208.035156 1020.402344 209.050781 1020.648438 C 210.0625 1020.894531 211.082031 1021.113281 212.109375 1021.308594 C 213.132812 1021.503906 214.164062 1021.675781 215.195312 1021.816406 C 216.230469 1021.960938 217.265625 1022.078125 218.304688 1022.167969 C 219.34375 1022.261719 220.386719 1022.324219 221.429688 1022.367188 C 222.472656 1022.40625 223.515625 1022.417969 224.558594 1022.40625 C 225.601562 1022.390625 226.644531 1022.351562 227.683594 1022.289062 C 228.726562 1022.222656 229.765625 1022.132812 230.800781 1022.015625 C 231.839844 1021.898438 232.871094 1021.753906 233.902344 1021.585938 C 234.933594 1021.414062 235.957031 1021.222656 236.976562 1021 C 237.996094 1020.78125 239.011719 1020.535156 240.019531 1020.265625 C 241.023438 1019.992188 242.027344 1019.695312 243.019531 1019.375 C 244.011719 1019.054688 244.996094 1018.710938 245.96875 1018.339844 C 246.945312 1017.96875 247.910156 1017.574219 248.867188 1017.15625 C 249.824219 1016.734375 250.769531 1016.292969 251.699219 1015.828125 C 252.632812 1015.363281 253.554688 1014.871094 254.464844 1014.359375 C 255.375 1013.847656 256.269531 1013.3125 257.152344 1012.757812 C 258.035156 1012.199219 258.902344 1011.621094 259.753906 1011.019531 C 260.609375 1010.417969 261.445312 1009.796875 262.269531 1009.15625 C 263.089844 1008.511719 263.894531 1007.851562 264.683594 1007.167969 C 265.472656 1006.484375 266.246094 1005.78125 267 1005.0625 C 267.753906 1004.339844 268.488281 1003.601562 269.207031 1002.839844 C 269.921875 1002.082031 270.621094 1001.308594 271.296875 1000.515625 C 271.976562 999.722656 272.632812 998.910156 273.269531 998.085938 L 359.597656 893.300781 C 374.089844 902.273438 392.957031 908.882812 409.109375 917.128906 L 341.042969 1045.253906 C 340.085938 1047.0625 339.214844 1048.914062 338.4375 1050.808594 C 337.660156 1052.703125 336.976562 1054.628906 336.390625 1056.589844 C 335.800781 1058.550781 335.308594 1060.535156 334.917969 1062.546875 C 334.523438 1064.554688 334.230469 1066.578125 334.035156 1068.617188 C 333.839844 1070.65625 333.746094 1072.699219 333.753906 1074.746094 C 333.761719 1076.792969 333.867188 1078.835938 334.074219 1080.871094 C 334.28125 1082.910156 334.585938 1084.929688 334.992188 1086.9375 C 335.398438 1088.945312 335.902344 1090.925781 336.503906 1092.882812 C 337.101562 1094.839844 337.796875 1096.765625 338.585938 1098.652344 C 339.375 1100.542969 340.257812 1102.390625 341.226562 1104.191406 C 342.199219 1105.996094 343.253906 1107.746094 344.398438 1109.445312 C 345.539062 1111.140625 346.765625 1112.78125 348.066406 1114.359375 C 349.371094 1115.9375 350.75 1117.449219 352.203125 1118.894531 C 353.65625 1120.335938 355.175781 1121.703125 356.761719 1123 C 358.347656 1124.292969 359.992188 1125.503906 361.699219 1126.636719 C 363.40625 1127.769531 365.164062 1128.816406 366.972656 1129.773438 C 368.78125 1130.734375 370.632812 1131.601562 372.527344 1132.378906 C 374.417969 1133.160156 376.347656 1133.839844 378.308594 1134.429688 C 380.269531 1135.019531 382.253906 1135.507812 384.265625 1135.902344 C 386.273438 1136.292969 388.296875 1136.589844 390.335938 1136.78125 C 392.375 1136.976562 394.417969 1137.070312 396.464844 1137.066406 C 398.511719 1137.058594 400.554688 1136.953125 402.589844 1136.746094 C 404.628906 1136.539062 406.648438 1136.230469 408.65625 1135.824219 C 410.664062 1135.417969 412.644531 1134.917969 414.601562 1134.316406 C 416.558594 1133.714844 418.484375 1133.019531 420.371094 1132.230469 C 422.261719 1131.441406 424.105469 1130.5625 425.910156 1129.589844 C 427.710938 1128.621094 429.460938 1127.5625 431.160156 1126.421875 C 432.859375 1125.277344 434.5 1124.054688 436.078125 1122.75 C 437.65625 1121.445312 439.167969 1120.070312 440.609375 1118.617188 C 442.054688 1117.164062 443.421875 1115.644531 444.714844 1114.058594 C 446.011719 1112.472656 447.222656 1110.824219 448.355469 1109.121094 C 449.488281 1107.414062 450.535156 1105.65625 451.492188 1103.847656 L 524.148438 967.03125 C 546.722656 973.589844 576.140625 973.605469 600.90625 978.261719 L 564.578125 1121.71875 C 564.320312 1122.710938 564.089844 1123.710938 563.878906 1124.71875 C 563.671875 1125.722656 563.488281 1126.730469 563.332031 1127.746094 C 563.171875 1128.761719 563.039062 1129.777344 562.929688 1130.800781 C 562.824219 1131.820312 562.738281 1132.84375 562.683594 1133.867188 C 562.625 1134.894531 562.589844 1135.917969 562.585938 1136.945312 C 562.578125 1137.972656 562.59375 1138.996094 562.636719 1140.023438 C 562.683594 1141.050781 562.75 1142.074219 562.84375 1143.09375 C 562.9375 1144.117188 563.054688 1145.136719 563.199219 1146.152344 C 563.34375 1147.171875 563.511719 1148.183594 563.707031 1149.191406 C 563.902344 1150.199219 564.121094 1151.203125 564.363281 1152.199219 C 564.605469 1153.195312 564.875 1154.1875 565.164062 1155.171875 C 565.457031 1156.15625 565.773438 1157.132812 566.113281 1158.101562 C 566.453125 1159.070312 566.816406 1160.027344 567.207031 1160.980469 C 567.59375 1161.929688 568.003906 1162.871094 568.4375 1163.800781 C 568.871094 1164.730469 569.328125 1165.652344 569.808594 1166.558594 C 570.285156 1167.464844 570.785156 1168.363281 571.308594 1169.246094 C 571.832031 1170.128906 572.378906 1171 572.945312 1171.855469 C 573.511719 1172.710938 574.097656 1173.554688 574.703125 1174.378906 C 575.3125 1175.207031 575.941406 1176.019531 576.585938 1176.816406 C 577.234375 1177.613281 577.902344 1178.394531 578.585938 1179.15625 C 579.273438 1179.921875 579.976562 1180.667969 580.699219 1181.398438 C 581.421875 1182.125 582.164062 1182.835938 582.921875 1183.527344 C 583.679688 1184.222656 584.453125 1184.894531 585.246094 1185.550781 C 586.035156 1186.203125 586.84375 1186.839844 587.664062 1187.453125 C 588.488281 1188.066406 589.324219 1188.660156 590.175781 1189.234375 C 591.027344 1189.808594 591.890625 1190.359375 592.769531 1190.890625 C 593.648438 1191.421875 594.539062 1191.929688 595.445312 1192.417969 C 596.347656 1192.90625 597.261719 1193.367188 598.191406 1193.8125 C 599.117188 1194.253906 600.054688 1194.671875 601 1195.066406 C 601.949219 1195.460938 602.90625 1195.835938 603.871094 1196.183594 C 604.835938 1196.53125 605.808594 1196.855469 606.792969 1197.15625 C 607.773438 1197.457031 608.761719 1197.734375 609.757812 1197.984375 C 610.753906 1198.238281 611.753906 1198.464844 612.757812 1198.667969 C 613.765625 1198.867188 614.777344 1199.046875 615.792969 1199.199219 C 616.808594 1199.351562 617.824219 1199.480469 618.847656 1199.582031 C 619.867188 1199.683594 620.890625 1199.761719 621.917969 1199.8125 C 622.941406 1199.867188 623.96875 1199.894531 624.996094 1199.894531 C 626.019531 1199.894531 627.046875 1199.871094 628.074219 1199.824219 C 629.097656 1199.773438 630.121094 1199.699219 631.144531 1199.601562 C 632.164062 1199.5 633.183594 1199.375 634.199219 1199.226562 C 635.214844 1199.078125 636.226562 1198.902344 637.234375 1198.703125 C 638.242188 1198.503906 639.242188 1198.28125 640.238281 1198.03125 C 641.234375 1197.78125 642.222656 1197.507812 643.207031 1197.210938 C 644.1875 1196.914062 645.164062 1196.59375 646.128906 1196.246094 C 647.097656 1195.902344 648.054688 1195.53125 649.003906 1195.140625 C 649.949219 1194.746094 650.890625 1194.332031 651.816406 1193.890625 C 652.746094 1193.453125 653.660156 1192.992188 654.566406 1192.507812 C 655.472656 1192.023438 656.363281 1191.515625 657.246094 1190.988281 C 658.125 1190.460938 658.992188 1189.910156 659.847656 1189.339844 C 660.699219 1188.769531 661.539062 1188.179688 662.363281 1187.566406 C 663.1875 1186.953125 663.996094 1186.320312 664.789062 1185.667969 C 665.582031 1185.019531 666.355469 1184.347656 667.117188 1183.65625 C 667.875 1182.964844 668.617188 1182.257812 669.34375 1181.53125 C 670.070312 1180.804688 670.777344 1180.058594 671.464844 1179.296875 C 672.152344 1178.535156 672.820312 1177.757812 673.472656 1176.964844 C 674.121094 1176.167969 674.75 1175.359375 675.363281 1174.53125 C 675.972656 1173.707031 676.5625 1172.867188 677.128906 1172.011719 C 677.699219 1171.15625 678.246094 1170.289062 678.769531 1169.40625 C 679.296875 1168.527344 679.800781 1167.632812 680.28125 1166.726562 C 680.765625 1165.820312 681.222656 1164.902344 681.660156 1163.972656 C 682.097656 1163.042969 682.511719 1162.105469 682.902344 1161.152344 C 683.292969 1160.203125 683.65625 1159.246094 684 1158.277344 C 684.34375 1157.3125 684.664062 1156.335938 684.957031 1155.351562 C 685.253906 1154.367188 685.523438 1153.378906 685.769531 1152.382812 L 725.222656 996.425781 C 734.421875 996.707031 740.695312 1000.039062 750.125 1000.039062 C 759.488281 1000.039062 765.703125 996.703125 774.832031 996.425781 L 814.089844 1152.285156 C 814.316406 1153.300781 814.566406 1154.3125 814.84375 1155.316406 C 815.117188 1156.320312 815.417969 1157.316406 815.746094 1158.304688 C 816.070312 1159.296875 816.421875 1160.273438 816.792969 1161.246094 C 817.167969 1162.21875 817.566406 1163.179688 817.992188 1164.132812 C 818.414062 1165.082031 818.859375 1166.023438 819.328125 1166.953125 C 819.800781 1167.882812 820.292969 1168.800781 820.808594 1169.703125 C 821.324219 1170.609375 821.859375 1171.5 822.421875 1172.378906 C 822.980469 1173.257812 823.5625 1174.121094 824.164062 1174.96875 C 824.769531 1175.816406 825.394531 1176.652344 826.039062 1177.46875 C 826.683594 1178.285156 827.347656 1179.085938 828.03125 1179.871094 C 828.71875 1180.65625 829.421875 1181.421875 830.144531 1182.171875 C 830.867188 1182.921875 831.609375 1183.652344 832.371094 1184.363281 C 833.128906 1185.074219 833.90625 1185.769531 834.699219 1186.441406 C 835.496094 1187.117188 836.304688 1187.769531 837.132812 1188.402344 C 837.960938 1189.035156 838.800781 1189.644531 839.660156 1190.238281 C 840.515625 1190.828125 841.386719 1191.394531 842.273438 1191.941406 C 843.160156 1192.492188 844.058594 1193.015625 844.972656 1193.515625 C 845.882812 1194.019531 846.808594 1194.5 847.746094 1194.953125 C 848.679688 1195.410156 849.628906 1195.84375 850.585938 1196.25 C 851.542969 1196.660156 852.511719 1197.042969 853.488281 1197.40625 C 854.464844 1197.765625 855.449219 1198.101562 856.445312 1198.410156 C 857.4375 1198.722656 858.4375 1199.007812 859.445312 1199.269531 C 860.453125 1199.53125 861.46875 1199.765625 862.488281 1199.976562 C 863.507812 1200.1875 864.535156 1200.371094 865.5625 1200.53125 C 866.589844 1200.691406 867.625 1200.824219 868.660156 1200.933594 C 869.695312 1201.039062 870.734375 1201.121094 871.773438 1201.175781 C 872.8125 1201.230469 873.851562 1201.261719 874.894531 1201.265625 C 875.9375 1201.269531 876.976562 1201.246094 878.015625 1201.199219 C 879.058594 1201.152344 880.09375 1201.074219 881.132812 1200.976562 C 882.167969 1200.875 883.203125 1200.75 884.230469 1200.597656 C 885.261719 1200.445312 886.289062 1200.269531 887.308594 1200.066406 C 888.332031 1199.863281 889.347656 1199.632812 890.355469 1199.378906 C 891.367188 1199.125 892.371094 1198.847656 893.363281 1198.542969 C 894.359375 1198.238281 895.347656 1197.910156 896.328125 1197.558594 C 897.308594 1197.203125 898.277344 1196.824219 899.238281 1196.421875 C 900.199219 1196.023438 901.148438 1195.597656 902.089844 1195.148438 C 903.027344 1194.699219 903.957031 1194.226562 904.871094 1193.730469 C 905.789062 1193.234375 906.691406 1192.714844 907.582031 1192.175781 C 908.46875 1191.632812 909.347656 1191.070312 910.207031 1190.484375 C 911.070312 1189.902344 911.914062 1189.296875 912.746094 1188.667969 C 913.578125 1188.042969 914.394531 1187.394531 915.191406 1186.726562 C 915.992188 1186.058594 916.773438 1185.371094 917.539062 1184.664062 C 918.304688 1183.957031 919.050781 1183.234375 919.777344 1182.488281 C 920.507812 1181.746094 921.21875 1180.984375 921.90625 1180.203125 C 922.597656 1179.425781 923.269531 1178.628906 923.917969 1177.816406 C 924.570312 1177 925.199219 1176.171875 925.808594 1175.328125 C 926.417969 1174.484375 927.003906 1173.625 927.570312 1172.75 C 928.136719 1171.875 928.683594 1170.988281 929.203125 1170.089844 C 929.726562 1169.1875 930.226562 1168.273438 930.703125 1167.347656 C 931.179688 1166.421875 931.628906 1165.484375 932.058594 1164.535156 C 932.488281 1163.585938 932.894531 1162.628906 933.277344 1161.660156 C 933.65625 1160.691406 934.015625 1159.710938 934.347656 1158.726562 C 934.679688 1157.738281 934.988281 1156.746094 935.269531 1155.742188 C 935.554688 1154.738281 935.8125 1153.730469 936.042969 1152.714844 C 936.277344 1151.703125 936.484375 1150.679688 936.664062 1149.65625 C 936.847656 1148.628906 937.003906 1147.601562 937.132812 1146.566406 C 937.261719 1145.535156 937.367188 1144.5 937.445312 1143.460938 C 937.523438 1142.421875 937.574219 1141.382812 937.601562 1140.339844 C 937.628906 1139.300781 937.628906 1138.257812 937.601562 1137.21875 C 937.578125 1136.175781 937.527344 1135.136719 937.449219 1134.097656 C 937.371094 1133.0625 937.265625 1132.023438 937.136719 1130.992188 C 937.007812 1129.957031 936.851562 1128.929688 936.671875 1127.902344 C 936.492188 1126.878906 936.285156 1125.859375 936.054688 1124.84375 C 935.820312 1123.828125 935.5625 1122.816406 935.28125 1121.816406 L 899.148438 978.261719 C 923.890625 973.613281 953.253906 973.582031 975.808594 967.03125 L 1048.464844 1103.847656 C 1049.425781 1105.65625 1050.472656 1107.414062 1051.601562 1109.121094 C 1052.734375 1110.824219 1053.949219 1112.472656 1055.242188 1114.058594 C 1056.535156 1115.644531 1057.90625 1117.164062 1059.347656 1118.617188 C 1060.792969 1120.070312 1062.300781 1121.445312 1063.882812 1122.75 C 1065.460938 1124.054688 1067.097656 1125.277344 1068.796875 1126.421875 C 1070.496094 1127.5625 1072.246094 1128.621094 1074.050781 1129.589844 C 1075.851562 1130.5625 1077.699219 1131.441406 1079.585938 1132.230469 C 1081.476562 1133.019531 1083.398438 1133.714844 1085.355469 1134.316406 C 1087.3125 1134.917969 1089.296875 1135.417969 1091.304688 1135.824219 C 1093.308594 1136.230469 1095.332031 1136.539062 1097.367188 1136.746094 C 1099.40625 1136.953125 1101.449219 1137.058594 1103.496094 1137.066406 C 1105.542969 1137.070312 1107.585938 1136.976562 1109.625 1136.78125 C 1111.660156 1136.589844 1113.6875 1136.292969 1115.695312 1135.902344 C 1117.703125 1135.507812 1119.6875 1135.019531 1121.648438 1134.429688 C 1123.613281 1133.839844 1125.539062 1133.160156 1127.433594 1132.378906 C 1129.328125 1131.601562 1131.179688 1130.734375 1132.988281 1129.773438 C 1134.796875 1128.816406 1136.554688 1127.769531 1138.257812 1126.636719 C 1139.964844 1125.503906 1141.609375 1124.292969 1143.199219 1123 C 1144.785156 1121.703125 1146.304688 1120.335938 1147.757812 1118.894531 C 1149.207031 1117.449219 1150.585938 1115.9375 1151.890625 1114.359375 C 1153.195312 1112.78125 1154.417969 1111.140625 1155.5625 1109.445312 C 1156.703125 1107.746094 1157.761719 1105.996094 1158.730469 1104.191406 C 1159.703125 1102.390625 1160.582031 1100.542969 1161.371094 1098.652344 C 1162.160156 1096.765625 1162.855469 1094.839844 1163.457031 1092.882812 C 1164.054688 1090.925781 1164.558594 1088.945312 1164.964844 1086.9375 C 1165.371094 1084.929688 1165.675781 1082.910156 1165.882812 1080.871094 C 1166.089844 1078.835938 1166.199219 1076.792969 1166.203125 1074.746094 C 1166.210938 1072.699219 1166.117188 1070.65625 1165.921875 1068.617188 C 1165.726562 1066.578125 1165.433594 1064.554688 1165.042969 1062.546875 C 1164.648438 1060.535156 1164.15625 1058.550781 1163.570312 1056.589844 C 1162.980469 1054.628906 1162.296875 1052.703125 1161.519531 1050.808594 C 1160.742188 1048.914062 1159.875 1047.0625 1158.914062 1045.253906 L 1090.945312 917.128906 C 1107.074219 908.898438 1125.890625 902.257812 1140.359375 893.300781 L 1226.6875 998.085938 C 1227.324219 998.910156 1227.984375 999.722656 1228.660156 1000.515625 C 1229.339844 1001.308594 1230.035156 1002.082031 1230.753906 1002.84375 C 1231.46875 1003.601562 1232.207031 1004.339844 1232.960938 1005.0625 C 1233.710938 1005.78125 1234.484375 1006.484375 1235.273438 1007.167969 C 1236.0625 1007.851562 1236.867188 1008.511719 1237.691406 1009.15625 C 1238.511719 1009.796875 1239.351562 1010.417969 1240.203125 1011.019531 C 1241.054688 1011.621094 1241.925781 1012.199219 1242.804688 1012.757812 C 1243.6875 1013.3125 1244.585938 1013.847656 1245.492188 1014.359375 C 1246.402344 1014.871094 1247.324219 1015.363281 1248.257812 1015.828125 C 1249.191406 1016.292969 1250.136719 1016.738281 1251.089844 1017.15625 C 1252.046875 1017.574219 1253.011719 1017.96875 1253.988281 1018.339844 C 1254.964844 1018.710938 1255.949219 1019.054688 1256.941406 1019.375 C 1257.933594 1019.699219 1258.933594 1019.992188 1259.941406 1020.265625 C 1260.949219 1020.535156 1261.960938 1020.78125 1262.980469 1021 C 1264.003906 1021.222656 1265.027344 1021.417969 1266.054688 1021.585938 C 1267.085938 1021.753906 1268.121094 1021.898438 1269.15625 1022.015625 C 1270.191406 1022.132812 1271.230469 1022.222656 1272.273438 1022.289062 C 1273.316406 1022.355469 1274.355469 1022.394531 1275.402344 1022.40625 C 1276.445312 1022.417969 1277.488281 1022.40625 1278.53125 1022.367188 C 1279.570312 1022.328125 1280.613281 1022.261719 1281.652344 1022.171875 C 1282.691406 1022.078125 1283.730469 1021.960938 1284.761719 1021.816406 C 1285.796875 1021.675781 1286.824219 1021.503906 1287.851562 1021.3125 C 1288.875 1021.117188 1289.894531 1020.894531 1290.910156 1020.648438 C 1291.921875 1020.402344 1292.929688 1020.132812 1293.929688 1019.835938 C 1294.929688 1019.539062 1295.921875 1019.21875 1296.90625 1018.871094 C 1297.890625 1018.527344 1298.867188 1018.15625 1299.832031 1017.761719 C 1300.800781 1017.367188 1301.753906 1016.949219 1302.699219 1016.503906 C 1303.644531 1016.0625 1304.578125 1015.597656 1305.5 1015.105469 C 1306.421875 1014.617188 1307.328125 1014.105469 1308.222656 1013.570312 C 1309.121094 1013.035156 1310.003906 1012.476562 1310.871094 1011.898438 C 1311.738281 1011.320312 1312.589844 1010.71875 1313.429688 1010.097656 C 1314.265625 1009.476562 1315.089844 1008.832031 1315.894531 1008.171875 C 1316.699219 1007.507812 1317.488281 1006.824219 1318.261719 1006.121094 C 1319.03125 1005.417969 1319.785156 1004.699219 1320.519531 1003.957031 C 1321.257812 1003.21875 1321.972656 1002.460938 1322.667969 1001.683594 C 1323.367188 1000.90625 1324.046875 1000.113281 1324.703125 999.304688 C 1325.359375 998.492188 1325.996094 997.667969 1326.613281 996.824219 C 1327.230469 995.984375 1327.824219 995.128906 1328.398438 994.253906 C 1328.972656 993.382812 1329.523438 992.5 1330.050781 991.597656 C 1330.582031 990.699219 1331.085938 989.789062 1331.570312 988.863281 C 1332.054688 987.9375 1332.515625 987.003906 1332.949219 986.054688 C 1333.386719 985.105469 1333.800781 984.148438 1334.1875 983.179688 C 1334.578125 982.210938 1334.941406 981.234375 1335.28125 980.246094 C 1335.621094 979.261719 1335.933594 978.265625 1336.226562 977.265625 C 1336.515625 976.261719 1336.777344 975.253906 1337.019531 974.238281 C 1337.257812 973.222656 1337.472656 972.199219 1337.660156 971.175781 C 1337.847656 970.148438 1338.011719 969.117188 1338.148438 968.082031 C 1338.28125 967.050781 1338.394531 966.011719 1338.476562 964.972656 C 1338.5625 963.929688 1338.621094 962.890625 1338.652344 961.847656 C 1338.6875 960.804688 1338.691406 959.761719 1338.671875 958.71875 C 1338.652344 957.675781 1338.605469 956.632812 1338.535156 955.589844 C 1338.464844 954.550781 1338.363281 953.511719 1338.242188 952.476562 C 1338.117188 951.441406 1337.96875 950.40625 1337.792969 949.378906 C 1337.617188 948.351562 1337.414062 947.328125 1337.1875 946.308594 C 1336.960938 945.289062 1336.707031 944.277344 1336.429688 943.273438 C 1336.152344 942.265625 1335.851562 941.269531 1335.523438 940.277344 C 1335.195312 939.289062 1334.84375 938.304688 1334.464844 937.332031 C 1334.089844 936.359375 1333.6875 935.394531 1333.261719 934.445312 C 1332.839844 933.492188 1332.390625 932.546875 1331.917969 931.617188 C 1331.445312 930.6875 1330.949219 929.769531 1330.433594 928.863281 C 1329.914062 927.957031 1329.375 927.066406 1328.8125 926.1875 C 1328.246094 925.308594 1327.664062 924.445312 1327.058594 923.597656 C 1326.449219 922.746094 1325.824219 921.914062 1325.175781 921.09375 C 1324.527344 920.277344 1323.859375 919.476562 1323.171875 918.691406 L 1239.382812 816.933594 C 1289.4375 769.003906 1327.800781 721.351562 1344.558594 684.121094 C 1346.320312 680.195312 1347.65625 676.128906 1348.578125 671.929688 C 1349.496094 667.726562 1349.980469 663.472656 1350.019531 659.171875 C 1350.0625 654.871094 1349.664062 650.609375 1348.828125 646.390625 C 1347.988281 642.167969 1346.730469 638.082031 1345.046875 634.121094 C 1321.523438 578.710938 1267.589844 498.597656 1170.828125 427.675781 C 1074.070312 356.75 934.402344 298.574219 750.125 298.574219 Z M 750.125 423.574219 C 908.5 423.574219 1019.5625 471.867188 1096.902344 528.554688 C 1159.566406 574.484375 1194.359375 623.347656 1213.992188 657.558594 C 1194.476562 689.109375 1160.304688 733.933594 1098.464844 776.40625 C 1021.15625 829.503906 909.335938 875.039062 750.125 875.039062 C 590.863281 875.039062 478.917969 829.503906 401.589844 776.40625 C 339.679688 733.894531 305.539062 688.988281 286.0625 657.460938 C 305.710938 623.242188 340.53125 574.453125 403.152344 528.554688 C 480.496094 471.867188 591.671875 423.574219 750.125 423.574219 Z M 750.125 423.574219 " fill-opacity="1" fill-rule="nonzero"/></g><g transform="matrix(1, 0, 0, 1, 520, 231)"><g clip-path="url(#4e451058af)"><g fill="#b30505" fill-opacity="1"><g transform="translate(12.671068, 686.335205)"><g><path d="M 190.691406 -237.40625 L 8.941406 -523.386719 L 80.265625 -523.386719 L 201.472656 -327.378906 L 217.683594 -300.945312 L 219.445312 -300.945312 L 235.148438 -326.871094 L 355.402344 -523.386719 L 425.554688 -523.386719 L 247.035156 -237.695312 Z M 188.578125 0 L 188.578125 -268.835938 L 248.996094 -268.835938 L 248.996094 0 Z M 188.578125 0 "/></g></g></g></g></g></svg>